<svg width="14" height="14" viewBox="0 0 14 14" fill="none" xmlns="http://www.w3.org/2000/svg">
<path fill-rule="evenodd" clip-rule="evenodd" d="M7.00004 0.333374C10.6819 0.333374 13.6667 3.31814 13.6667 7.00004C13.6667 10.6819 10.6819 13.6667 7.00004 13.6667C3.31814 13.6667 0.333374 10.6819 0.333374 7.00004C0.333374 3.31814 3.31814 0.333374 7.00004 0.333374ZM7.00004 1.66671C4.05452 1.66671 1.66671 4.05452 1.66671 7.00004C1.66671 9.94556 4.05452 12.3334 7.00004 12.3334C9.94556 12.3334 12.3334 9.94556 12.3334 7.00004C12.3334 4.05452 9.94556 1.66671 7.00004 1.66671ZM7.00004 5.66671C7.36823 5.66671 7.66671 5.96518 7.66671 6.33337V10.3334C7.66671 10.7016 7.36823 11 7.00004 11C6.63185 11 6.33337 10.7016 6.33337 10.3334V6.33337C6.33337 5.96518 6.63185 5.66671 7.00004 5.66671ZM7.00004 3.00004C7.36823 3.00004 7.66671 3.29852 7.66671 3.66671C7.66671 4.0349 7.36823 4.33337 7.00004 4.33337C6.63185 4.33337 6.33337 4.0349 6.33337 3.66671C6.33337 3.29852 6.63185 3.00004 7.00004 3.00004Z" fill="#20284A"/>
</svg>
